<?xml version="1.0" encoding="UTF-8"?><svg id="DESIGN" xmlns="http://www.w3.org/2000/svg" viewBox="0 0 420 251"><defs><style>.cls-1{fill:#0c1f42;}.cls-2{fill:#007dc3;}.cls-3{fill:#f16224;}</style></defs><path class="cls-1" d="M14.9,177.34v-49.26h11.96v38.7h21.95v10.56H14.9Z"/><path class="cls-1" d="M68.94,177.97c-3.14,0-5.95-.83-8.41-2.5-2.46-1.66-4.42-3.96-5.88-6.9-1.46-2.93-2.18-6.25-2.18-9.96s.73-7.15,2.18-10.06c1.45-2.91,3.45-5.2,5.98-6.86,2.53-1.66,5.42-2.5,8.66-2.5,1.78,0,3.41.26,4.89.77,1.48.52,2.78,1.23,3.91,2.15,1.12.91,2.09,1.97,2.88,3.17.8,1.2,1.38,2.47,1.76,3.83l-2.32-.28v-8.87h11.19v37.37h-11.4v-9.01l2.53-.07c-.38,1.31-.98,2.56-1.83,3.73s-1.88,2.21-3.1,3.1c-1.22.89-2.58,1.6-4.08,2.11-1.5.52-3.1.77-4.79.77ZM72.04,168.47c1.73,0,3.24-.4,4.5-1.2,1.27-.8,2.25-1.94,2.96-3.41.7-1.48,1.06-3.22,1.06-5.24s-.35-3.76-1.06-5.24c-.7-1.48-1.69-2.63-2.96-3.45-1.27-.82-2.77-1.23-4.5-1.23s-3.16.41-4.4,1.23c-1.24.82-2.22,1.97-2.92,3.45-.7,1.48-1.06,3.23-1.06,5.24s.35,3.76,1.06,5.24c.7,1.48,1.68,2.62,2.92,3.41,1.24.8,2.71,1.2,4.4,1.2Z"/><path class="cls-1" d="M101.52,177.34v-52.07h11.26v52.07h-11.26ZM112.36,166.36l-4.15-8.44,17.45-17.94h14.85l-28.15,26.39ZM126.85,177.34l-13.16-17.03,7.95-6.19,18.51,23.22h-13.3Z"/><path class="cls-1" d="M161.83,178.04c-4.13,0-7.72-.83-10.77-2.5-3.05-1.67-5.42-3.94-7.11-6.83s-2.53-6.18-2.53-9.89c0-2.86.47-5.49,1.41-7.88.94-2.39,2.25-4.47,3.94-6.23,1.69-1.76,3.69-3.12,6.02-4.08,2.32-.96,4.87-1.44,7.63-1.44s5.03.47,7.21,1.41c2.18.94,4.07,2.25,5.67,3.94,1.59,1.69,2.81,3.68,3.66,5.98.84,2.3,1.22,4.81,1.13,7.53l-.07,3.03h-29.77l-1.62-6.33h22.24l-1.2,1.34v-1.41c-.09-1.17-.46-2.22-1.09-3.13-.63-.92-1.47-1.63-2.5-2.15-1.03-.52-2.21-.77-3.52-.77-1.83,0-3.39.36-4.68,1.09-1.29.73-2.26,1.78-2.92,3.17-.66,1.38-.99,3.08-.99,5.1s.43,3.86,1.3,5.38c.87,1.52,2.13,2.71,3.8,3.55,1.66.84,3.65,1.27,5.95,1.27,1.59,0,3.01-.23,4.26-.7,1.24-.47,2.59-1.27,4.05-2.39l5.28,7.46c-1.45,1.27-3,2.3-4.64,3.1-1.64.8-3.32,1.4-5.03,1.79-1.71.4-3.41.6-5.1.6Z"/><path class="cls-2" d="M207.71,177.34v-38.7h-14.64v-10.56h41.59v10.56h-14.99v38.7h-11.96Z"/><path class="cls-2" d="M248.66,177.97c-3.14,0-5.95-.83-8.41-2.5-2.46-1.66-4.42-3.96-5.88-6.9-1.46-2.93-2.18-6.25-2.18-9.96s.73-7.15,2.18-10.06c1.45-2.91,3.45-5.2,5.98-6.86,2.53-1.66,5.42-2.5,8.66-2.5,1.78,0,3.41.26,4.89.77,1.48.52,2.78,1.23,3.91,2.15,1.12.91,2.09,1.97,2.88,3.17.8,1.2,1.38,2.47,1.76,3.83l-2.32-.28v-8.87h11.19v37.37h-11.4v-9.01l2.53-.07c-.38,1.31-.98,2.56-1.83,3.73s-1.88,2.21-3.1,3.1c-1.22.89-2.58,1.6-4.08,2.11-1.5.52-3.1.77-4.79.77ZM251.76,168.47c1.73,0,3.24-.4,4.5-1.2,1.27-.8,2.25-1.94,2.96-3.41.7-1.48,1.06-3.22,1.06-5.24s-.35-3.76-1.06-5.24c-.7-1.48-1.69-2.63-2.96-3.45-1.27-.82-2.77-1.23-4.5-1.23s-3.16.41-4.4,1.23c-1.24.82-2.22,1.97-2.92,3.45-.7,1.48-1.06,3.23-1.06,5.24s.35,3.76,1.06,5.24c.7,1.48,1.68,2.62,2.92,3.41,1.24.8,2.71,1.2,4.4,1.2Z"/><path class="cls-2" d="M281.24,177.34v-52.07h11.05v22.31l-2.25.84c.52-1.69,1.44-3.23,2.78-4.61,1.34-1.38,2.94-2.5,4.82-3.34,1.88-.84,3.85-1.27,5.91-1.27,2.81,0,5.18.58,7.11,1.72,1.92,1.15,3.38,2.86,4.36,5.14.99,2.28,1.48,5.06,1.48,8.34v22.94h-11.33v-22.03c0-1.5-.21-2.74-.63-3.73s-1.07-1.72-1.94-2.22c-.87-.49-1.93-.71-3.2-.67-.99,0-1.9.15-2.75.46-.84.31-1.57.75-2.18,1.34-.61.59-1.09,1.26-1.44,2.01-.35.75-.53,1.57-.53,2.46v22.38h-11.26Z"/><path class="cls-2" d="M343.52,178.04c-3.89,0-7.35-.84-10.38-2.53-3.03-1.69-5.42-3.99-7.18-6.9-1.76-2.91-2.64-6.24-2.64-9.99s.88-7.08,2.64-9.99c1.76-2.91,4.15-5.21,7.18-6.9,3.03-1.69,6.48-2.53,10.38-2.53s7.35.84,10.38,2.53c3.03,1.69,5.41,3.99,7.14,6.9,1.74,2.91,2.6,6.24,2.6,9.99s-.87,7.08-2.6,9.99c-1.74,2.91-4.12,5.21-7.14,6.9-3.03,1.69-6.49,2.53-10.38,2.53ZM343.52,168.33c1.69,0,3.19-.42,4.5-1.27,1.31-.84,2.34-1.99,3.1-3.45.75-1.45,1.1-3.12,1.06-5,.05-1.88-.31-3.55-1.06-5.03-.75-1.48-1.78-2.64-3.1-3.48-1.31-.84-2.81-1.27-4.5-1.27s-3.2.42-4.54,1.27-2.38,2.01-3.13,3.48c-.75,1.48-1.1,3.16-1.06,5.03-.05,1.88.3,3.54,1.06,5,.75,1.45,1.79,2.6,3.13,3.45,1.34.84,2.85,1.27,4.54,1.27Z"/><path class="cls-2" d="M388.83,178.04c-4.13,0-7.72-.83-10.77-2.5-3.05-1.67-5.42-3.94-7.11-6.83s-2.53-6.18-2.53-9.89c0-2.86.47-5.49,1.41-7.88.94-2.39,2.25-4.47,3.94-6.23,1.69-1.76,3.69-3.12,6.02-4.08,2.32-.96,4.87-1.44,7.63-1.44s5.03.47,7.21,1.41c2.18.94,4.07,2.25,5.67,3.94,1.59,1.69,2.81,3.68,3.66,5.98.84,2.3,1.22,4.81,1.13,7.53l-.07,3.03h-29.77l-1.62-6.33h22.24l-1.2,1.34v-1.41c-.09-1.17-.46-2.22-1.09-3.13-.63-.92-1.47-1.63-2.5-2.15-1.03-.52-2.21-.77-3.52-.77-1.83,0-3.39.36-4.68,1.09-1.29.73-2.26,1.78-2.92,3.17-.66,1.38-.99,3.08-.99,5.1s.43,3.86,1.3,5.38c.87,1.52,2.13,2.71,3.8,3.55,1.66.84,3.65,1.27,5.95,1.27,1.59,0,3.01-.23,4.26-.7,1.24-.47,2.59-1.27,4.05-2.39l5.28,7.46c-1.45,1.27-3,2.3-4.64,3.1-1.64.8-3.32,1.4-5.03,1.79-1.71.4-3.41.6-5.1.6Z"/><path class="cls-1" d="M111.04,212.99l-.16-.02-.21.02-.53-.05-.46.02-.3-.02-.64.02h-.48l-.44-.02h-.37l-.32.05-.37-.02-.11.02-.51-.05h-.69l-.76-.02-.83.02h-.74l-.37-.02-.37-.21-.28-.46-.05-.55v-1.63l-.02-.71.02-.53v-.71l-.02-.44-.02-.48-.02-.23v-.32l.02-.34v-.55l-.02-.07.02-.21-.02-.28v-.21l-.02-.55.02-.97.02-.64v-.39l-.02-.67v-1.49l-.05-.39.02-.3v-.28l.02-.44v-.25l.02-.44.02-.62.09-.3.16-.25.25-.16.18-.09.25-.05h.67l.97.05h1.52l.64-.02.48-.02.71-.02h1.5l.51.07h.51l.37-.05.64.02.37.02.92-.05.25.02.34-.02.37.05.34.14.18.28.14.46.05.48-.02.3-.14.41-.25.32-.25.09-.53.05-.83.02-.48.02-.21-.02-.74.05h-1.08l-.87-.02-.53-.02h-.23l-.46.05-1.22.02h-.41l-.51.02h-.44l-.41.12-.07.37-.02.39-.05.16v.39l-.02.53.05.58-.02.6.12.53.28.16h.18l.51.07.6-.05h.39l.48.05.51-.05,1.75-.02h1.26l.34.02.39.12.28.28.09.25.05.23.02.18.05.53-.07.48-.16.28-.46.23h-1.22l-1.33.07-.74-.02h-.25l-.94-.02-.28.02-.41-.02-.55.02-.28.05-.3.09-.16.14-.02.32-.02.34-.05.39v.51l.02.35v.44l-.02.37v.62l.21.6.64.28h1.61l.64-.02.64.02,1.31-.02.48-.05h1.38l.28.05h.44l.71.02.58.05h.3l.18.05.21.14.14.21.07.41-.02.48v.28l-.05.25-.09.28-.14.18-.16.09-.23.07-1.15.12-.6.07h-.64l-.46-.02Z"/><path class="cls-1" d="M130.96,212.94l-.74.02-.48-.09-.3-.21-.32-.41-.39-.53-.92-1.31-.44-.58-.23-.32-.51-.76-.55-.78-.41-.53-.34-.39-.23-.34-.21-.21-.48-.69-.3-.37-.21-.21-.16-.3-.28-.3-.53-.71-.44-.64-.28-.37-.3-.32-.18-.25-.14-.14-.23-.09-.21.12-.02.44.02.53v.46l-.02.48.05.71v.94l.02.94.02.58.07.44-.02.71v.97l-.05.64v.34l-.02.48.02.37-.02.3v.41l-.05.37-.16.3-.23.16-.21.07-.37.07h-.3l-.16.02-.48-.02-.48-.32-.18-.34-.07-.37.02-.41.05-.44-.02-.44v-.3l-.02-.41v-.44l.05-.32-.02-.6-.05-.44-.07-.44.02-.69v-.39l-.02-.39.02-.41v-.25l.05-.64v-.69l-.05-.34v-.21l.05-.37-.05-.41v-.16l.05-.41-.02-.58.02-.51-.05-.39.02-.23-.02-.3-.02-.46-.02-.41v-.62l.02-.44.02-.28v-.23l.05-.37.05-.3.12-.09.41-.23.34-.02.44-.02.51.05.48.09.3.21.37.46.23.34.39.55.32.51.3.37.3.46.32.41.14.18.23.41.25.32.39.44.3.41.25.28.46.55.55.74.34.55.55.74.23.25.18.28.3.44.41.48.41.64.23.28.16.21.23.18h.25l.07-.12.05-.51.02-.48v-2.3l.05-.64v-.41l-.02-.44v-.41l.05-.32v-1.54l-.05-.23.02-.37-.02-.46v-.37l-.02-.35v-.64l.02-.44.11-.41.18-.14.25-.14.21-.05.3-.02.25-.07h.67l.28.14.21.23.16.37.05.6-.05.53-.02.25.05.44-.02.34.02.32-.02.34.02.23v.9l.02.67v1.2l.07.34v.21l-.05.3.05.48-.02.25.02.21-.07.25v2.71l-.02.64.02.35v2.6l.07.39-.05.55-.25.23-.18.07-.23.05-.51-.05Z"/><path class="cls-1" d="M142.81,212.96l-.48-.07-.16-.07-.16-.16-.18-.23-.02-.23-.18-.41-.05-.21-.09-.16-.3-.55-.23-.55-.12-.25-.21-.37-.18-.46-.23-.51-.16-.51-.28-.58-.14-.37-.18-.3-.14-.41-.09-.25-.07-.21-.16-.37-.44-.87-.07-.21-.14-.34-.12-.28-.14-.37-.05-.16-.18-.39-.3-.64-.18-.44-.09-.21-.02-.16-.11-.25-.12-.3-.14-.41-.12-.21-.02-.14-.14-.21-.21-.53-.23-.62-.16-.55-.14-.32-.07-.23-.05-.28v-.28l.09-.21.07-.09.32-.16.51-.21.55-.11.32.02.32.16.23.28.12.23.14.3.23.55.37.85.48,1.04.16.51.16.44.09.18.18.48.16.51.12.16.09.23.18.41.21.48.21.44.12.32.09.23.12.3.23.41.25.55.16.37.14.21.16.37.21.46.16.39.18.23.14.14.14-.05.14-.18.12-.25.14-.21.14-.37.18-.53.16-.28.07-.23.16-.37.12-.3.05-.14.14-.21.16-.32.12-.3.09-.28.09-.21.07-.3.23-.46.16-.37.12-.32.16-.25.14-.3.12-.25.14-.3.12-.3.07-.18.12-.3.18-.32.16-.37.21-.48.23-.48.14-.32.09-.18.07-.21.16-.3.21-.44.25-.34.37-.21.21-.05.39.11.37.14.39.18.14.02.3.32.05.39-.02.14-.09.39-.21.46-.11.3-.32.8-.21.53-.18.37-.32.69-.14.32-.12.32-.12.25-.09.16-.07.21-.23.53-.21.46-.07.16-.09.3-.14.25-.09.18-.09.21-.05.16-.12.25-.18.51-.21.41-.12.3-.07.21-.07.14-.07.18-.12.3-.16.35-.28.46-.23.67-.14.39-.05.21-.14.23-.07.23-.12.25-.14.32-.16.39-.07.28-.09.23-.21.44-.23.53-.16.25-.07.14-.18.23-.18.14-.34.07-.64-.07Z"/><path class="cls-1" d="M155.04,212.92l-.44-.11-.32-.32-.09-.32.02-.53v-.92l.02-.55-.05-.37.02-.53-.05-.58.02-.3.02-.25-.07-.39v-.71l.05-.55-.05-.46.07-.41-.02-.28v-.41l-.07-.41.02-.28v-.37l-.07-.64-.02-.39.07-.69v-.67l.02-.62-.02-.46v-2.21l-.02-.46.09-.37.12-.21.14-.14.3-.21.44-.05h.41l.48.02.37.11.18.21.18.3.02.41.02.58v.39l-.02.25.05.39-.02.58v.55l.05.39-.02.57-.02.71v.46l.02.32v.57l.02.51-.02.62.02,1.08-.05.64v.3l.02.21v1.29l.02.37v1.2l.05.25v1.08l-.02.53-.12.64-.12.25-.12.14-.16.07-.41.16h-.48l-.18.02-.3-.02Z"/><path class="cls-1" d="M173.62,213.12l-.23-.11-.18-.16-.25-.28-.28-.39-.18-.23-.18-.25-.18-.28-.21-.3-.14-.23-.18-.23-.25-.37-.37-.41-.25-.32-.21-.3-.3-.37-.34-.41-.28-.39-.37-.44-.23-.32-.14-.18-.16-.12-.23-.16-.23-.12-.25-.05-.3-.05-.21.02-1.43-.05-.55.05-.46.16-.11.37-.05.62-.05.53-.02.28-.02.6v.46l.02.64-.02.18v.44l-.02.39v.48l-.05.32-.05.37-.12.23-.12.14-.14.07-.23.07h-.28l-.41.05-.51-.05-.25-.05-.23-.09-.21-.37-.12-.32v-.55l-.02-.55-.02-.23.07-.9v-.55l-.02-.46-.05-.37v-1.56l.02-.44.02-.28-.02-.18v-1.06l.02-.44v-.9l-.02-.48v-.32l.05-.23-.05-.28v-.46l-.02-.16.02-.14.02-.23v-.41l-.02-.09.05-.35v-1.1l-.05-.23.05-.23-.07-.44v-.41l.02-.46.09-.39.14-.21.14-.12.25-.14.67-.09,1.01.05.8-.02.53-.02h.37l.25.02.39-.02.53-.02,1.17.02h.3l.44-.02h1.06l.53.02,1.24.11.28.07.41.14.53.23.58.34.32.32.18.21.34.37.21.39.12.37.16.39.12.32.09.18.05.21.05.18-.02.28.02.3.02.55.02.71-.02.34-.05.18-.07.25-.09.25-.16.46-.23.53-.14.21-.14.23-.25.28-.23.21-.23.25-.39.25-.28.14-.39.28-.48.21-.14.14.02.11.02.09.14.23.25.41.32.39.23.28.12.21.18.21.69.99.25.32.28.37.23.28.18.3.25.32.16.41-.05.16-.09.3-.28.46-.32.21-.39.28-.51.21-.23-.07ZM170.52,204.07l.21-.02.25-.02.18-.02.23.02.21-.09.16-.07.21-.07.14-.11.16-.16.14-.18.18-.48.09-.48.05-.21.02-.35.05-.28-.05-.34-.12-.41-.12-.37-.28-.44-.39-.25-.32-.09-.44-.14-.44-.02-.34-.02-.21-.02h-.21l-.25-.02-.28.05h-1.54l-.32-.02h-.37l-.41.02-.34-.07h-.71l-.55.07-.14.05-.07.16-.02.3-.02.6v.74l-.02.53.02.74-.02.69.07.41.34.21.3.07.3.02.41-.05.25.05.51.02h.48l.14.02.51-.02h.62l.97.09h.78Z"/><path class="cls-1" d="M187.33,213.26h-.39l-.35-.02-.46-.07h-.57l-.41-.11-.23-.05-.3-.07-.41-.16-.55-.21-.46-.25-.23-.11-.25-.16-.3-.16-.21-.16-.23-.14-.32-.3-.39-.35-.25-.25-.83-.99-.32-.62-.28-.51-.3-.53-.14-.51-.12-.3-.11-.55-.09-.46-.02-.28-.07-.39-.02-.32.02-.39v-.67l.07-.44.05-.41.18-.57.07-.37.18-.53.23-.6.21-.32.23-.51.44-.69.39-.53.23-.21.16-.21.23-.25.23-.23.18-.09.25-.25.62-.34.55-.28.64-.3.48-.14.3-.14.62-.21.58-.09.37-.07.55.02.8-.02.55.05h.25l.41.07.46.11.3.07.21.09.34.12.32.12.32.16.37.21.48.25.64.41.48.39.48.46.58.69.37.44.16.23.14.28.16.23.21.41.23.53.14.46.12.37.05.21.09.3.12.58.05.37v.32l.02.37-.05.39-.05.6-.05.37-.02.37-.07.46-.07.28-.09.39-.21.55-.18.51-.21.44-.16.28-.12.23-.18.23-.16.21-.14.21-.09.16-.14.16-.25.25-.3.23-.21.21-.16.14-.21.16-.18.16-.23.14-.16.14-.28.18-.46.25-.51.3-.39.16-.25.09-.48.16-.57.16-.48.07h-.67l-.53-.05ZM188.11,210.6l.3-.02.14-.02.12-.07.09-.05.3-.05.3-.14.28-.09.44-.23.46-.3.6-.44.34-.37.12-.14.18-.28.35-.44.46-.69.14-.51.09-.44.07-.51.05-.62.05-.32-.05-.6-.16-.83-.16-.53-.23-.48-.12-.39-.14-.25-.18-.37-.28-.35-.16-.21-.25-.25-.78-.62-.74-.44-.44-.18-.48-.14-.18-.05-.3-.09-.39-.09h-1.26l-.34.07-.41.05-.53.16-.76.32-1.29.74-.23.25-.18.23-.14.12-.28.39-.21.39-.12.16-.09.25-.16.3-.14.37-.12.37-.05.32-.11.51-.05.57.02.28.02.32.05.37v.35l.02.11.07.25.09.41.07.34.28.51.55.83.44.55.16.18.37.32.46.3.16.09.09.05.41.23.48.23.39.11.64.12.64.09.55.02.67-.07Z"/><path class="cls-1" d="M212.1,212.94l-.74.02-.48-.09-.3-.21-.32-.41-.39-.53-.92-1.31-.44-.58-.23-.32-.51-.76-.55-.78-.41-.53-.34-.39-.23-.34-.21-.21-.48-.69-.3-.37-.21-.21-.16-.3-.28-.3-.53-.71-.44-.64-.28-.37-.3-.32-.18-.25-.14-.14-.23-.09-.21.12-.02.44.02.53v.46l-.02.48.05.71v.94l.02.94.02.58.07.44-.02.71v.97l-.05.64v.34l-.02.48.02.37-.02.3v.41l-.05.37-.16.3-.23.16-.21.07-.37.07h-.3l-.16.02-.48-.02-.48-.32-.18-.34-.07-.37.02-.41.05-.44-.02-.44v-.3l-.02-.41v-.44l.05-.32-.02-.6-.05-.44-.07-.44.02-.69v-.39l-.02-.39.02-.41v-.25l.05-.64v-.69l-.05-.34v-.21l.05-.37-.05-.41v-.16l.05-.41-.02-.58.02-.51-.05-.39.02-.23-.02-.3-.02-.46-.02-.41v-.62l.02-.44.02-.28v-.23l.05-.37.05-.3.12-.09.41-.23.34-.02.44-.02.51.05.48.09.3.21.37.46.23.34.39.55.32.51.3.37.3.46.32.41.14.18.23.41.25.32.39.44.3.41.25.28.46.55.55.74.34.55.55.74.23.25.18.28.3.44.41.48.41.64.23.28.16.21.23.18h.25l.07-.12.05-.51.02-.48v-2.3l.05-.64v-.41l-.02-.44v-.41l.05-.32v-1.54l-.05-.23.02-.37-.02-.46v-.37l-.02-.35v-.64l.02-.44.11-.41.18-.14.25-.14.21-.05.3-.02.25-.07h.67l.28.14.21.23.16.37.05.6-.05.53-.02.25.05.44-.02.34.02.32-.02.34.02.23v.9l.02.67v1.2l.07.34v.21l-.05.3.05.48-.02.25.02.21-.07.25v2.71l-.02.64.02.35v2.6l.07.39-.05.55-.25.23-.18.07-.23.05-.51-.05Z"/><path class="cls-1" d="M218.98,212.94l-.46-.23-.21-.44-.02-.51-.05-.25v-.46l.05-.41-.02-.46-.02-.51.02-.44-.05-.6v-.62l.02-.32-.05-.62.02-.78v-.37l-.05-.64v-.87l.02-.3.02-.64v-.9l-.02-.92v-1.38l.02-.3v-1.17l-.02-.53-.05-.46v-.39l.05-.18.16-.25.18-.14.44-.07.46-.05h.16l.34-.02.41.07.18.11.16.16.16.34.25.39.28.51.25.55.41.71.3.55.28.6.44.87.28.46.25.57.25.44.12.23.12.21.14.28.23.55.32.58.23.46.14.3.11.23.16.28.25.48.25.53.23.34.21.39.11.3.14.07.11-.07.16-.23.16-.25.16-.3.28-.58.25-.51.14-.3.18-.28.14-.16.07-.18.07-.21.23-.34.16-.34.14-.21.21-.39.23-.48.21-.44.21-.46.21-.41.23-.34.25-.55.3-.55.28-.62.34-.69.21-.44.07-.25.18-.32.09-.28.23-.46.35-.55.28-.18.28-.09,1.03-.09.41.05.37.14.14.21.05.16.05.37v2.32l-.02.48.02.53v2.07l.02.58v.32l-.02.48.07.69-.02.55.05.71v1.75l-.02.58v.37l-.02.3.02.51.02.46-.02.6.02.69-.05.51-.11.41-.14.16-.23.14-.18.07-.28.07-.39-.02h-.3l-.23-.05-.23-.07-.28-.14-.3-.64-.07-.71.02-.48v-.76l-.02-.97v-1.91l-.07-.76.05-.51v-.37l.02-.51v-.44l-.02-.25v-.6l-.02-.07-.07-.05-.05.05-.12.16-.07.21-.16.28-.11.23-.14.23-.16.32-.21.46-.23.51-.25.37-.23.39-.21.41-.16.35-.25.46-.34.64-.16.39-.16.44-.3.55-.12.28-.12.16-.09.21-.11.18-.09.18-.25.48-.21.44-.05.14-.21.3-.41.3-.3.05-.28.02-.32.02-.32-.02-.25-.12-.25-.34-.28-.58-.18-.34-.18-.41-.25-.55-.23-.41-.14-.32-.09-.21-.11-.23-.48-.8-.12-.16-.23-.51-.23-.48-.11-.23-.25-.39-.28-.64-.23-.46-.16-.37-.28-.46-.28-.6-.28-.51-.16-.18-.07.07v.34l-.02.53v.39l.02.18v.3l-.02.34.05.67v.46l-.02.87-.02.37v.99l.02.55-.02.39.05.41v.32l.05.51v.41l-.07.64-.07.25-.23.3-.76.21h-.51l-.39-.12Z"/><path class="cls-1" d="M249.29,212.99l-.16-.02-.21.02-.53-.05-.46.02-.3-.02-.64.02h-.48l-.44-.02h-.37l-.32.05-.37-.02-.11.02-.51-.05h-.69l-.76-.02-.83.02h-.74l-.37-.02-.37-.21-.28-.46-.05-.55v-1.63l-.02-.71.02-.53v-.71l-.02-.44-.02-.48-.02-.23v-.32l.02-.34v-.55l-.02-.07.02-.21-.02-.28v-.21l-.02-.55.02-.97.02-.64v-.39l-.02-.67v-1.49l-.05-.39.02-.3v-.28l.02-.44v-.25l.02-.44.02-.62.09-.3.16-.25.25-.16.18-.09.25-.05h.67l.97.05h1.52l.64-.02.48-.02.71-.02h1.5l.51.07h.51l.37-.05.64.02.37.02.92-.05.25.02.34-.02.37.05.34.14.18.28.14.46.05.48-.02.3-.14.41-.25.32-.25.09-.53.05-.83.02-.48.02-.21-.02-.74.05h-1.08l-.87-.02-.53-.02h-.23l-.46.05-1.22.02h-.41l-.51.02h-.44l-.41.12-.07.37-.02.39-.05.16v.39l-.02.53.05.58-.02.6.12.53.28.16h.18l.51.07.6-.05h.39l.48.05.51-.05,1.75-.02h1.26l.34.02.39.12.28.28.09.25.05.23.02.18.05.53-.07.48-.16.28-.46.23h-1.22l-1.33.07-.74-.02h-.25l-.94-.02-.28.02-.41-.02-.55.02-.28.05-.3.09-.16.14-.02.32-.02.34-.05.39v.51l.02.35v.44l-.02.37v.62l.21.6.64.28h1.61l.64-.02.64.02,1.31-.02.48-.05h1.38l.28.05h.44l.71.02.58.05h.3l.18.05.21.14.14.21.07.41-.02.48v.28l-.05.25-.09.28-.14.18-.16.09-.23.07-1.15.12-.6.07h-.64l-.46-.02Z"/><path class="cls-1" d="M269.21,212.94l-.74.02-.48-.09-.3-.21-.32-.41-.39-.53-.92-1.31-.44-.58-.23-.32-.51-.76-.55-.78-.41-.53-.34-.39-.23-.34-.21-.21-.48-.69-.3-.37-.21-.21-.16-.3-.28-.3-.53-.71-.44-.64-.28-.37-.3-.32-.18-.25-.14-.14-.23-.09-.21.12-.02.44.02.53v.46l-.02.48.05.71v.94l.02.94.02.58.07.44-.02.71v.97l-.05.64v.34l-.02.48.02.37-.02.3v.41l-.05.37-.16.3-.23.16-.21.07-.37.07h-.3l-.16.02-.48-.02-.48-.32-.18-.34-.07-.37.02-.41.05-.44-.02-.44v-.3l-.02-.41v-.44l.05-.32-.02-.6-.05-.44-.07-.44.02-.69v-.39l-.02-.39.02-.41v-.25l.05-.64v-.69l-.05-.34v-.21l.05-.37-.05-.41v-.16l.05-.41-.02-.58.02-.51-.05-.39.02-.23-.02-.3-.02-.46-.02-.41v-.62l.02-.44.02-.28v-.23l.05-.37.05-.3.12-.09.41-.23.34-.02.44-.02.51.05.48.09.3.21.37.46.23.34.39.55.32.51.3.37.3.46.32.41.14.18.23.41.25.32.39.44.3.41.25.28.46.55.55.74.34.55.55.74.23.25.18.28.3.44.41.48.41.64.23.28.16.21.23.18h.25l.07-.12.05-.51.02-.48v-2.3l.05-.64v-.41l-.02-.44v-.41l.05-.32v-1.54l-.05-.23.02-.37-.02-.46v-.37l-.02-.35v-.64l.02-.44.11-.41.18-.14.25-.14.21-.05.3-.02.25-.07h.67l.28.14.21.23.16.37.05.6-.05.53-.02.25.05.44-.02.34.02.32-.02.34.02.23v.9l.02.67v1.2l.07.34v.21l-.05.3.05.48-.02.25.02.21-.07.25v2.71l-.02.64.02.35v2.6l.07.39-.05.55-.25.23-.18.07-.23.05-.51-.05Z"/><path class="cls-1" d="M280.32,213.08h-.39l-.23-.05-.32-.18-.11-.14-.14-.14-.09-.44v-.48l.02-.34v-.34l.05-.44-.02-.58.02-.44v-.48l.02-.39-.02-.9v-1.61l-.05-.55v-.18l.02-.25v-1.22l-.05-.39v-.62l.02-.74v-.48l.02-.18-.05-.23.02-.37v-.3l-.02-.18v-.25l-.05-.39-.12-.28-.09-.07-.48-.02-.55.05-.18.02-.3-.02h-.41l-1.47-.05-.48.02-.32-.07-.21-.16-.18-.21-.14-.32-.05-.55.07-.62.21-.39.28-.18.28-.09.32-.02.37-.07h.28l.18.02h1.15l.11.02h1.33l.3.02h.53l.51.02h.62l.55-.02.44-.02.46.02.55-.02.6.02,2.21.05.55.05.46.07.51.39.16.55v.3l.02.21-.07.32-.07.18-.09.14-.16.18-.44.14-.71.09-.78-.02-.6.05-1.66-.05-.37.09-.14.21-.02.48v.53l.02.44-.02.46v.39l-.05.48-.02.55v.23l.02.28.02.25-.02.16.02.3v.51l-.05.23.05.18-.02.25.02.25-.05.25-.02.34v.32l-.02.37v.32l-.05.23.05.14-.05.34.02.62v.34l.02.21-.05.25.02.21-.02.21v.57l.02.37-.05.3v.21l.07.16.05.23.02.25-.05.28-.09.28-.14.25-.16.07-.21.09-.21.07-.25.12-.46-.07Z"/><path class="cls-1" d="M288.65,213.22l-.3-.07-.41-.21-.32-.25-.23-.28-.09-.28v-.41l.21-.41.14-.34.12-.25.14-.28.21-.48.14-.37.44-.87.23-.51.21-.53.37-.71.23-.53.16-.32.16-.35.18-.39.32-.83.28-.48.18-.51.32-.69.37-.85.21-.46.34-.87.25-.53.12-.34.21-.39.16-.32.05-.18.09-.23.12-.32.16-.23.14-.28.14-.25.09-.18.16-.28.28-.23.58-.12h.62l.3.07.25.23.16.3.14.28.23.53.23.51.44.85.14.37.16.3.14.41.18.41.11.32.16.32.25.57.25.51.16.41.16.28.09.25.16.34.21.37.14.37.14.39.14.23.11.3.23.41.18.46.3.71.41.78.23.55.16.34.09.21.09.3.28.55.21.44.12.18.21.44.16.48.12.39-.09.51-.25.3-.46.23-.81.21-.53-.12-.21-.18-.23-.23-.07-.3-.21-.44-.25-.53-.14-.25-.21-.46-.25-.53-.09-.21-.16-.28-.21-.37-.16-.3-.23-.16-.46-.05-.57.02h-2.69l-.76-.02-.6.05-.32-.02-.39.05-.37.02-.3.16-.14.21-.46.92-.23.41-.07.25-.11.23-.14.32-.18.39-.12.34-.23.37-.28.41-.25.21-.37.09-.39-.02ZM296.81,206.23l.02-.02.07-.02.09-.21-.07-.41-.14-.34-.51-.9-.23-.44-.3-.74-.18-.44-.16-.41-.25-.6-.28-.23-.18.37-.18.58-.39.87-.3.62-.21.58-.18.41-.23.46-.02.18-.05.21v.23l.16.16.39.02h.41l.64.05,1.54.05.53-.02Z"/><path class="cls-1" d="M306.96,212.87l-.3-.16-.16-.32-.12-.41-.02-.48.02-.51-.02-.46.05-.35-.02-.6v-1.03l.02-.51-.02-.55-.05-.25-.02-.51v-1.43l.02-.64v-.44l.05-.51.02-.51.05-.6-.05-.6.05-.48v-1.06l-.05-.32v-.67l-.02-.58v-1.26l.09-.37.07-.16.11-.16.16-.09.28-.07.3-.02.3.05h.44l.37-.02.25.09.14.14.12.21.05.16.02.37.02.46v.34l.05.51v.37l-.05.46-.02.39v1.45l.02.51.05.44.02.41.02.69.02.51-.02.16.02.25.02.44-.02.44v.21l-.02.21.02.16-.05.46v.41l-.02.78-.07.51v.53l.02.39.07.55v.18l.02.21.14.18.12.05h1.01l.51.02.21-.02.23.02.37.02.46.02h.48l.37-.07.44-.02h.41l.34.02h.46l.28.05h.41l.55-.07h.55l.34.02h.32l.3.07.25.16.25.3.05.16v1.04l-.05.23-.07.16-.18.16-.39.21-.32.05-.39-.02h-1.2l-.39.07-.3-.02h-1.31l-.35-.02-1.36.05h-4.44l-.35-.12Z"/><path class="cls-1" d="M49.27,236.92l-.44-.11-.32-.32-.09-.32.02-.53v-.92l.02-.55-.05-.37.02-.53-.05-.58.02-.3.02-.25-.07-.39v-.71l.05-.55-.05-.46.07-.41-.02-.28v-.41l-.07-.41.02-.28v-.37l-.07-.64-.02-.39.07-.69v-.67l.02-.62-.02-.46v-2.21l-.02-.46.09-.37.12-.21.14-.14.3-.21.44-.05h.41l.48.02.37.11.18.21.18.3.02.41.02.58v.39l-.02.25.05.39-.02.58v.55l.05.39-.02.57-.02.71v.46l.02.32v.57l.02.51-.02.62.02,1.08-.05.64v.3l.02.21v1.29l.02.37v1.2l.05.25v1.08l-.02.53-.12.64-.12.25-.12.14-.16.07-.41.16h-.48l-.18.02-.3-.02Z"/><path class="cls-1" d="M56.95,236.94l-.46-.23-.21-.44-.02-.51-.05-.25v-.46l.05-.41-.02-.46-.02-.51.02-.44-.05-.6v-.62l.02-.32-.05-.62.02-.78v-.37l-.05-.64v-.87l.02-.3.02-.64v-.9l-.02-.92v-1.38l.02-.3v-1.17l-.02-.53-.05-.46v-.39l.05-.18.16-.25.18-.14.44-.07.46-.05h.16l.34-.02.41.07.18.11.16.16.16.34.25.39.28.51.25.55.41.71.3.55.28.6.44.87.28.46.25.57.25.44.12.23.12.21.14.28.23.55.32.58.23.46.14.3.11.23.16.28.25.48.25.53.23.34.21.39.11.3.14.07.11-.07.16-.23.16-.25.16-.3.28-.58.25-.51.14-.3.18-.28.14-.16.07-.18.07-.21.23-.34.16-.34.14-.21.21-.39.23-.48.21-.44.21-.46.21-.41.23-.34.25-.55.3-.55.28-.62.34-.69.21-.44.07-.25.18-.32.09-.28.23-.46.35-.55.28-.18.28-.09,1.03-.09.41.05.37.14.14.21.05.16.05.37v2.32l-.02.48.02.53v2.07l.02.58v.32l-.02.48.07.69-.02.55.05.71v1.75l-.02.58v.37l-.02.3.02.51.02.46-.02.6.02.69-.05.51-.11.41-.14.16-.23.14-.18.07-.28.07-.39-.02h-.3l-.23-.05-.23-.07-.28-.14-.3-.64-.07-.71.02-.48v-.76l-.02-.97v-1.91l-.07-.76.05-.51v-.37l.02-.51v-.44l-.02-.25v-.6l-.02-.07-.07-.05-.05.05-.12.16-.07.21-.16.28-.11.23-.14.23-.16.32-.21.46-.23.51-.25.37-.23.39-.21.41-.16.35-.25.46-.34.64-.16.39-.16.44-.3.55-.12.28-.12.16-.09.21-.11.18-.09.18-.25.48-.21.44-.05.14-.21.3-.41.3-.3.05-.28.02-.32.02-.32-.02-.25-.12-.25-.34-.28-.58-.18-.34-.18-.41-.25-.55-.23-.41-.14-.32-.09-.21-.11-.23-.48-.8-.12-.16-.23-.51-.23-.48-.11-.23-.25-.39-.28-.64-.23-.46-.16-.37-.28-.46-.28-.6-.28-.51-.16-.18-.07.07v.34l-.02.53v.39l.02.18v.3l-.02.34.05.67v.46l-.02.87-.02.37v.99l.02.55-.02.39.05.41v.32l.05.51v.41l-.07.64-.07.25-.23.3-.76.21h-.51l-.39-.12Z"/><path class="cls-1" d="M78.98,236.94l-.32-.07-.18-.16-.16-.21-.05-.32-.02-.32-.05-.51v-.23l.07-.51.05-.58v-.28l.02-.41-.02-.44.02-.39v-.6l-.02-.34-.02-.41.02-.34.02-.16-.07-.21-.05-.18.09-.07.12-.05-.02-.12h-.05l-.12.02-.05-.11.02-.07.05-.09-.05-.16v-.23l-.02-.12.05-.21.02-.3-.05-.16.05-.21v-.44l.05-.32.05-.16v-.25l-.02-.41-.02-.39-.02-.41v-.53l-.05-.87v-.44l-.05-.28v-1.13l-.02-.48v-.28l.05-.51.14-.34.09-.09.16-.14.21-.02.25-.07h.35l.21-.05.25.02,1.2.05.14.02.3-.02.41.02h.41l.34-.02.28-.02.23.02h.25l.16-.05h.34l.44.02h.21l.21-.05.23-.02.25.02.23.05.21-.07.16.02h.09l.11-.05.21.05.51.02.41-.02.25.02.32.05.37.09.32.07.48.18.39.18.41.21.44.37.32.34.16.21.18.3.16.32.12.3.09.25.02.18.12.3.09.41.05.32.07.32v.76l-.02.51-.11.48-.05.44-.18.34-.05.18-.12.23-.09.21-.23.25-.25.32-.12.16-.21.21-.23.3-.16.18-.18.09-.14.09-.18.09-.23.09-.41.09-.16.09-.25.11-.21.05-.25.02-.3.05h-1.01l-.23.02h-.46l-.39-.02-.39.05-.53-.02-.67.07-1.5.02h-.57l-.53.07-.16.39-.14.48v1.33l-.02.23.02.3-.02.51.02.64v.8l-.07.28v.39l-.02.21-.12.23-.28.25-.32.07-.21.07-.37.02-.51-.05ZM84.16,228.02l.6-.02.16-.02.14.02.18-.02.34-.02.53.02,1.2-.05.48-.14.34-.18.39-.41.32-.58.09-.39.02-.3v-.46l-.09-.51-.11-.51-.18-.34-.16-.16-.28-.18-.67-.3-.67-.07-.34-.02-.44.02-.3.02-.32-.02-.25.02h-1.29l-.28-.02-.14-.02h-.14l-.3.02-.39-.02-.58.05-.53-.05-.14-.02-.16.07-.11.25-.09.35-.07.46v.46l-.02.3-.05.32v1.7l.05.41.07.14.12.09.3.07.37.05.39.02h1.15l.37.02.48-.05Z"/><path class="cls-1" d="M107.13,237.12l-.23-.11-.18-.16-.25-.28-.28-.39-.18-.23-.18-.25-.18-.28-.21-.3-.14-.23-.18-.23-.25-.37-.37-.41-.25-.32-.21-.3-.3-.37-.34-.41-.28-.39-.37-.44-.23-.32-.14-.18-.16-.12-.23-.16-.23-.12-.25-.05-.3-.05-.21.02-1.43-.05-.55.05-.46.16-.11.37-.05.62-.05.53-.02.28-.02.6v.46l.02.64-.02.18v.44l-.02.39v.48l-.05.32-.05.37-.12.23-.12.14-.14.07-.23.07h-.28l-.41.05-.51-.05-.25-.05-.23-.09-.21-.37-.12-.32v-.55l-.02-.55-.02-.23.07-.9v-.55l-.02-.46-.05-.37v-1.56l.02-.44.02-.28-.02-.18v-1.06l.02-.44v-.9l-.02-.48v-.32l.05-.23-.05-.28v-.46l-.02-.16.02-.14.02-.23v-.41l-.02-.09.05-.35v-1.1l-.05-.23.05-.23-.07-.44v-.41l.02-.46.09-.39.14-.21.14-.12.25-.14.67-.09,1.01.05.8-.02.53-.02h.37l.25.02.39-.02.53-.02,1.17.02h.3l.44-.02h1.06l.53.02,1.24.11.28.07.41.14.53.23.58.34.32.32.18.21.34.37.21.39.11.37.16.39.12.32.09.18.05.21.05.18-.02.28.02.3.02.55.02.71-.02.34-.05.18-.07.25-.09.25-.16.46-.23.53-.14.21-.14.23-.25.28-.23.21-.23.25-.39.25-.28.14-.39.28-.48.21-.14.14.02.11.02.09.14.23.25.41.32.39.23.28.12.21.18.21.69.99.25.32.28.37.23.28.18.3.25.32.16.41-.05.16-.09.3-.28.46-.32.21-.39.28-.51.21-.23-.07ZM104.03,228.07l.21-.02.25-.02.18-.02.23.02.21-.09.16-.07.21-.07.14-.11.16-.16.14-.18.18-.48.09-.48.05-.21.02-.35.05-.28-.05-.34-.12-.41-.12-.37-.28-.44-.39-.25-.32-.09-.44-.14-.44-.02-.34-.02-.21-.02h-.21l-.25-.02-.28.05h-1.54l-.32-.02h-.37l-.41.02-.34-.07h-.71l-.55.07-.14.05-.07.16-.02.3-.02.6v.74l-.02.53.02.74-.02.69.07.41.34.21.3.07.3.02.41-.05.25.05.51.02h.48l.14.02.51-.02h.62l.97.09h.78Z"/><path class="cls-1" d="M120.84,237.26h-.39l-.35-.02-.46-.07h-.57l-.41-.11-.23-.05-.3-.07-.41-.16-.55-.21-.46-.25-.23-.11-.25-.16-.3-.16-.21-.16-.23-.14-.32-.3-.39-.35-.25-.25-.83-.99-.32-.62-.28-.51-.3-.53-.14-.51-.12-.3-.11-.55-.09-.46-.02-.28-.07-.39-.02-.32.02-.39v-.67l.07-.44.05-.41.18-.57.07-.37.18-.53.23-.6.21-.32.23-.51.44-.69.39-.53.23-.21.16-.21.23-.25.23-.23.18-.09.25-.25.62-.34.55-.28.64-.3.48-.14.3-.14.62-.21.58-.09.37-.07.55.02.8-.02.55.05h.25l.41.07.46.11.3.07.21.09.34.12.32.12.32.16.37.21.48.25.64.41.48.39.48.46.58.69.37.44.16.23.14.28.16.23.21.41.23.53.14.46.12.37.05.21.09.3.12.58.05.37v.32l.02.37-.05.39-.05.6-.05.37-.02.37-.07.46-.07.28-.09.39-.21.55-.18.51-.21.44-.16.28-.12.23-.18.23-.16.21-.14.21-.09.16-.14.16-.25.25-.3.23-.21.21-.16.14-.21.16-.18.16-.23.14-.16.14-.28.18-.46.25-.51.3-.39.16-.25.09-.48.16-.57.16-.48.07h-.67l-.53-.05ZM121.62,234.6l.3-.02.14-.02.12-.07.09-.05.3-.05.3-.14.28-.09.44-.23.46-.3.6-.44.34-.37.12-.14.18-.28.35-.44.46-.69.14-.51.09-.44.07-.51.05-.62.05-.32-.05-.6-.16-.83-.16-.53-.23-.48-.12-.39-.14-.25-.18-.37-.28-.35-.16-.21-.25-.25-.78-.62-.74-.44-.44-.18-.48-.14-.18-.05-.3-.09-.39-.09h-1.26l-.34.07-.41.05-.53.16-.76.32-1.29.74-.23.25-.18.23-.14.12-.28.39-.21.39-.12.16-.09.25-.16.3-.14.37-.12.37-.05.32-.11.51-.05.57.02.28.02.32.05.37v.35l.02.11.07.25.09.41.07.34.28.51.55.83.44.55.16.18.37.32.46.3.16.09.09.05.41.23.48.23.39.11.64.12.64.09.55.02.67-.07Z"/><path class="cls-1" d="M138.05,236.96l-.48-.07-.16-.07-.16-.16-.18-.23-.02-.23-.18-.41-.05-.21-.09-.16-.3-.55-.23-.55-.12-.25-.21-.37-.18-.46-.23-.51-.16-.51-.28-.58-.14-.37-.18-.3-.14-.41-.09-.25-.07-.21-.16-.37-.44-.87-.07-.21-.14-.34-.12-.28-.14-.37-.05-.16-.18-.39-.3-.64-.18-.44-.09-.21-.02-.16-.11-.25-.12-.3-.14-.41-.12-.21-.02-.14-.14-.21-.21-.53-.23-.62-.16-.55-.14-.32-.07-.23-.05-.28v-.28l.09-.21.07-.09.32-.16.51-.21.55-.11.32.02.32.16.23.28.12.23.14.3.23.55.37.85.48,1.04.16.51.16.44.09.18.18.48.16.51.12.16.09.23.18.41.21.48.21.44.12.32.09.23.12.3.23.41.25.55.16.37.14.21.16.37.21.46.16.39.18.23.14.14.14-.05.14-.18.12-.25.14-.21.14-.37.18-.53.16-.28.07-.23.16-.37.12-.3.05-.14.14-.21.16-.32.12-.3.09-.28.09-.21.07-.3.23-.46.16-.37.12-.32.16-.25.14-.3.12-.25.14-.3.12-.3.07-.18.12-.3.18-.32.16-.37.21-.48.23-.48.14-.32.09-.18.07-.21.16-.3.21-.44.25-.34.37-.21.21-.05.39.11.37.14.39.18.14.02.3.32.05.39-.02.14-.09.39-.21.46-.11.3-.32.8-.21.53-.18.37-.32.69-.14.32-.12.32-.12.25-.09.16-.07.21-.23.53-.21.46-.07.16-.09.3-.14.25-.09.18-.09.21-.05.16-.12.25-.18.51-.21.41-.12.3-.07.21-.07.14-.07.18-.12.3-.16.35-.28.46-.23.67-.14.39-.05.21-.14.23-.07.23-.12.25-.14.32-.16.39-.07.28-.09.23-.21.44-.23.53-.16.25-.07.14-.18.23-.18.14-.34.07-.64-.07Z"/><path class="cls-1" d="M158.38,236.99l-.16-.02-.21.02-.53-.05-.46.02-.3-.02-.64.02h-.48l-.44-.02h-.37l-.32.05-.37-.02-.11.02-.51-.05h-.69l-.76-.02-.83.02h-.74l-.37-.02-.37-.21-.28-.46-.05-.55v-1.63l-.02-.71.02-.53v-.71l-.02-.44-.02-.48-.02-.23v-.32l.02-.34v-.55l-.02-.07.02-.21-.02-.28v-.21l-.02-.55.02-.97.02-.64v-.39l-.02-.67v-1.49l-.05-.39.02-.3v-.28l.02-.44v-.25l.02-.44.02-.62.09-.3.16-.25.25-.16.18-.09.25-.05h.67l.97.05h1.52l.64-.02.48-.02.71-.02h1.5l.51.07h.51l.37-.05.64.02.37.02.92-.05.25.02.34-.02.37.05.34.14.18.28.14.46.05.48-.02.3-.14.41-.25.32-.25.09-.53.05-.83.02-.48.02-.21-.02-.74.05h-1.08l-.87-.02-.53-.02h-.23l-.46.05-1.22.02h-.41l-.51.02h-.44l-.41.12-.07.37-.02.39-.05.16v.39l-.02.53.05.58-.02.6.12.53.28.16h.18l.51.07.6-.05h.39l.48.05.51-.05,1.75-.02h1.26l.34.02.39.12.28.28.09.25.05.23.02.18.05.53-.07.48-.16.28-.46.23h-1.22l-1.33.07-.74-.02h-.25l-.94-.02-.28.02-.41-.02-.55.02-.28.05-.3.09-.16.14-.02.32-.02.34-.05.39v.51l.02.35v.44l-.02.37v.62l.21.6.64.28h1.61l.64-.02.64.02,1.31-.02.48-.05h1.38l.28.05h.44l.71.02.58.05h.3l.18.05.21.14.14.21.07.41-.02.48v.28l-.05.25-.09.28-.14.18-.16.09-.23.07-1.15.12-.6.07h-.64l-.46-.02Z"/><path class="cls-1" d="M166.45,236.94l-.46-.23-.21-.44-.02-.51-.05-.25v-.46l.05-.41-.02-.46-.02-.51.02-.44-.05-.6v-.62l.02-.32-.05-.62.02-.78v-.37l-.05-.64v-.87l.02-.3.02-.64v-.9l-.02-.92v-1.38l.02-.3v-1.17l-.02-.53-.05-.46v-.39l.05-.18.16-.25.18-.14.44-.07.46-.05h.16l.34-.02.41.07.18.11.16.16.16.34.25.39.28.51.25.55.41.71.3.55.28.6.44.87.28.46.25.57.25.44.12.23.12.21.14.28.23.55.32.58.23.46.14.3.11.23.16.28.25.48.25.53.23.34.21.39.11.3.14.07.11-.07.16-.23.16-.25.16-.3.28-.58.25-.51.14-.3.18-.28.14-.16.07-.18.07-.21.23-.34.16-.34.14-.21.21-.39.23-.48.21-.44.21-.46.21-.41.23-.34.25-.55.3-.55.28-.62.34-.69.21-.44.07-.25.18-.32.09-.28.23-.46.35-.55.28-.18.28-.09,1.03-.09.41.05.37.14.14.21.05.16.05.37v2.32l-.02.48.02.53v2.07l.02.58v.32l-.02.48.07.69-.02.55.05.71v1.75l-.02.58v.37l-.02.3.02.51.02.46-.02.6.02.69-.05.51-.11.41-.14.16-.23.14-.18.07-.28.07-.39-.02h-.3l-.23-.05-.23-.07-.28-.14-.3-.64-.07-.71.02-.48v-.76l-.02-.97v-1.91l-.07-.76.05-.51v-.37l.02-.51v-.44l-.02-.25v-.6l-.02-.07-.07-.05-.05.05-.12.16-.07.21-.16.28-.11.23-.14.23-.16.32-.21.46-.23.51-.25.37-.23.39-.21.41-.16.35-.25.46-.34.64-.16.39-.16.44-.3.55-.12.28-.12.16-.09.21-.11.18-.09.18-.25.48-.21.44-.05.14-.21.3-.41.3-.3.05-.28.02-.32.02-.32-.02-.25-.12-.25-.34-.28-.58-.18-.34-.18-.41-.25-.55-.23-.41-.14-.32-.09-.21-.11-.23-.48-.8-.12-.16-.23-.51-.23-.48-.11-.23-.25-.39-.28-.64-.23-.46-.16-.37-.28-.46-.28-.6-.28-.51-.16-.18-.07.07v.34l-.02.53v.39l.02.18v.3l-.02.34.05.67v.46l-.02.87-.02.37v.99l.02.55-.02.39.05.41v.32l.05.51v.41l-.07.64-.07.25-.23.3-.76.21h-.51l-.39-.12Z"/><path class="cls-1" d="M196.76,236.99l-.16-.02-.21.02-.53-.05-.46.02-.3-.02-.64.02h-.48l-.44-.02h-.37l-.32.05-.37-.02-.11.02-.51-.05h-.69l-.76-.02-.83.02h-.74l-.37-.02-.37-.21-.28-.46-.05-.55v-1.63l-.02-.71.02-.53v-.71l-.02-.44-.02-.48-.02-.23v-.32l.02-.34v-.55l-.02-.07.02-.21-.02-.28v-.21l-.02-.55.02-.97.02-.64v-.39l-.02-.67v-1.49l-.05-.39.02-.3v-.28l.02-.44v-.25l.02-.44.02-.62.09-.3.16-.25.25-.16.18-.09.25-.05h.67l.97.05h1.52l.64-.02.48-.02.71-.02h1.5l.51.07h.51l.37-.05.64.02.37.02.92-.05.25.02.34-.02.37.05.34.14.18.28.14.46.05.48-.02.3-.14.41-.25.32-.25.09-.53.05-.83.02-.48.02-.21-.02-.74.05h-1.08l-.87-.02-.53-.02h-.23l-.46.05-1.22.02h-.41l-.51.02h-.44l-.41.12-.07.37-.02.39-.05.16v.39l-.02.53.05.58-.02.6.12.53.28.16h.18l.51.07.6-.05h.39l.48.05.51-.05,1.75-.02h1.26l.34.02.39.12.28.28.09.25.05.23.02.18.05.53-.07.48-.16.28-.46.23h-1.22l-1.33.07-.74-.02h-.25l-.94-.02-.28.02-.41-.02-.55.02-.28.05-.3.09-.16.14-.02.32-.02.34-.05.39v.51l.02.35v.44l-.02.37v.62l.21.6.64.28h1.61l.64-.02.64.02,1.31-.02.48-.05h1.38l.28.05h.44l.71.02.58.05h.3l.18.05.21.14.14.21.07.41-.02.48v.28l-.05.25-.09.28-.14.18-.16.09-.23.07-1.15.12-.6.07h-.64l-.46-.02Z"/><path class="cls-1" d="M216.68,236.94l-.74.02-.48-.09-.3-.21-.32-.41-.39-.53-.92-1.31-.44-.58-.23-.32-.51-.76-.55-.78-.41-.53-.34-.39-.23-.34-.21-.21-.48-.69-.3-.37-.21-.21-.16-.3-.28-.3-.53-.71-.44-.64-.28-.37-.3-.32-.18-.25-.14-.14-.23-.09-.21.12-.02.44.02.53v.46l-.02.48.05.71v.94l.02.94.02.58.07.44-.02.71v.97l-.05.64v.34l-.02.48.02.37-.02.3v.41l-.05.37-.16.3-.23.16-.21.07-.37.07h-.3l-.16.02-.48-.02-.48-.32-.18-.34-.07-.37.02-.41.05-.44-.02-.44v-.3l-.02-.41v-.44l.05-.32-.02-.6-.05-.44-.07-.44.02-.69v-.39l-.02-.39.02-.41v-.25l.05-.64v-.69l-.05-.34v-.21l.05-.37-.05-.41v-.16l.05-.41-.02-.58.02-.51-.05-.39.02-.23-.02-.3-.02-.46-.02-.41v-.62l.02-.44.02-.28v-.23l.05-.37.05-.3.12-.09.41-.23.34-.02.44-.02.51.05.48.09.3.21.37.46.23.34.39.55.32.51.3.37.3.46.32.41.14.18.23.41.25.32.39.44.3.41.25.28.46.55.55.74.34.55.55.74.23.25.18.28.3.44.41.48.41.64.23.28.16.21.23.18h.25l.07-.12.05-.51.02-.48v-2.3l.05-.64v-.41l-.02-.44v-.41l.05-.32v-1.54l-.05-.23.02-.37-.02-.46v-.37l-.02-.35v-.64l.02-.44.11-.41.18-.14.25-.14.21-.05.3-.02.25-.07h.67l.28.14.21.23.16.37.05.6-.05.53-.02.25.05.44-.02.34.02.32-.02.34.02.23v.9l.02.67v1.2l.07.34v.21l-.05.3.05.48-.02.25.02.21-.07.25v2.71l-.02.64.02.35v2.6l.07.39-.05.55-.25.23-.18.07-.23.05-.51-.05Z"/><path class="cls-1" d="M227.79,237.08h-.39l-.23-.05-.32-.18-.11-.14-.14-.14-.09-.44v-.48l.02-.34v-.34l.05-.44-.02-.58.02-.44v-.48l.02-.39-.02-.9v-1.61l-.05-.55v-.18l.02-.25v-1.22l-.05-.39v-.62l.02-.74v-.48l.02-.18-.05-.23.02-.37v-.3l-.02-.18v-.25l-.05-.39-.12-.28-.09-.07-.48-.02-.55.05-.18.02-.3-.02h-.41l-1.47-.05-.48.02-.32-.07-.21-.16-.18-.21-.14-.32-.05-.55.07-.62.21-.39.28-.18.28-.09.32-.02.37-.07h.28l.18.02h1.15l.11.02h1.33l.3.02h.53l.51.02h.62l.55-.02.44-.02.46.02.55-.02.6.02,2.21.05.55.05.46.07.51.39.16.55v.3l.02.21-.07.32-.07.18-.09.14-.16.18-.44.14-.71.09-.78-.02-.6.05-1.66-.05-.37.09-.14.21-.02.48v.53l.02.44-.02.46v.39l-.05.48-.02.55v.23l.02.28.02.25-.02.16.02.3v.51l-.05.23.05.18-.02.25.02.25-.05.25-.02.34v.32l-.02.37v.32l-.05.23.05.14-.05.34.02.62v.34l.02.21-.05.25.02.21-.02.21v.57l.02.37-.05.3v.21l.07.16.05.23.02.25-.05.28-.09.28-.14.25-.16.07-.21.09-.21.07-.25.12-.46-.07Z"/><path class="cls-1" d="M245.89,236.94l-.32-.07-.18-.16-.16-.21-.05-.32-.02-.32-.05-.51v-.23l.07-.51.05-.58v-.28l.02-.41-.02-.44.02-.39v-.6l-.02-.34-.02-.41.02-.34.02-.16-.07-.21-.05-.18.09-.07.12-.05-.02-.12h-.05l-.12.02-.05-.11.02-.07.05-.09-.05-.16v-.23l-.02-.12.05-.21.02-.3-.05-.16.05-.21v-.44l.05-.32.05-.16v-.25l-.02-.41-.02-.39-.02-.41v-.53l-.05-.87v-.44l-.05-.28v-1.13l-.02-.48v-.28l.05-.51.14-.34.09-.09.16-.14.21-.02.25-.07h.35l.21-.05.25.02,1.2.05.14.02.3-.02.41.02h.41l.34-.02.28-.02.23.02h.25l.16-.05h.34l.44.02h.21l.21-.05.23-.02.25.02.23.05.21-.07.16.02h.09l.11-.05.21.05.51.02.41-.02.25.02.32.05.37.09.32.07.48.18.39.18.41.21.44.37.32.34.16.21.18.3.16.32.12.3.09.25.02.18.12.3.09.41.05.32.07.32v.76l-.02.51-.11.48-.05.44-.18.34-.05.18-.12.23-.09.21-.23.25-.25.32-.12.16-.21.21-.23.3-.16.18-.18.09-.14.09-.18.09-.23.09-.41.09-.16.09-.25.11-.21.05-.25.02-.3.05h-1.01l-.23.02h-.46l-.39-.02-.39.05-.53-.02-.67.07-1.49.02h-.58l-.53.07-.16.39-.14.48v1.33l-.02.23.02.3-.02.51.02.64v.8l-.07.28v.39l-.02.21-.12.23-.28.25-.32.07-.21.07-.37.02-.51-.05ZM251.07,228.02l.6-.02.16-.02.14.02.18-.02.34-.02.53.02,1.2-.05.48-.14.34-.18.39-.41.32-.58.09-.39.02-.3v-.46l-.09-.51-.11-.51-.18-.34-.16-.16-.28-.18-.67-.3-.67-.07-.34-.02-.44.02-.3.02-.32-.02-.25.02h-1.29l-.28-.02-.14-.02h-.14l-.3.02-.39-.02-.58.05-.53-.05-.14-.02-.16.07-.11.25-.09.35-.07.46v.46l-.02.3-.05.32v1.7l.05.41.07.14.12.09.3.07.37.05.39.02h1.15l.37.02.48-.05Z"/><path class="cls-1" d="M274.04,237.12l-.23-.11-.18-.16-.25-.28-.28-.39-.18-.23-.18-.25-.18-.28-.21-.3-.14-.23-.18-.23-.25-.37-.37-.41-.25-.32-.21-.3-.3-.37-.34-.41-.28-.39-.37-.44-.23-.32-.14-.18-.16-.12-.23-.16-.23-.12-.25-.05-.3-.05-.21.02-1.43-.05-.55.05-.46.16-.11.37-.05.62-.05.53-.02.28-.02.6v.46l.02.64-.02.18v.44l-.02.39v.48l-.05.32-.05.37-.12.23-.12.14-.14.07-.23.07h-.28l-.41.05-.51-.05-.25-.05-.23-.09-.21-.37-.12-.32v-.55l-.02-.55-.02-.23.07-.9v-.55l-.02-.46-.05-.37v-1.56l.02-.44.02-.28-.02-.18v-1.06l.02-.44v-.9l-.02-.48v-.32l.05-.23-.05-.28v-.46l-.02-.16.02-.14.02-.23v-.41l-.02-.09.05-.35v-1.1l-.05-.23.05-.23-.07-.44v-.41l.02-.46.09-.39.14-.21.14-.12.25-.14.67-.09,1.01.05.8-.02.53-.02h.37l.25.02.39-.02.53-.02,1.17.02h.3l.44-.02h1.06l.53.02,1.24.11.28.07.41.14.53.23.58.34.32.32.18.21.34.37.21.39.11.37.16.39.12.32.09.18.05.21.05.18-.02.28.02.3.02.55.02.71-.02.34-.05.18-.07.25-.09.25-.16.46-.23.53-.14.21-.14.23-.25.28-.23.21-.23.25-.39.25-.28.14-.39.28-.48.21-.14.14.02.11.02.09.14.23.25.41.32.39.23.28.12.21.18.21.69.99.25.32.28.37.23.28.18.3.25.32.16.41-.05.16-.09.3-.28.46-.32.21-.39.28-.51.21-.23-.07ZM270.94,228.07l.21-.02.25-.02.18-.02.23.02.21-.09.16-.07.21-.07.14-.11.16-.16.14-.18.18-.48.09-.48.05-.21.02-.35.05-.28-.05-.34-.12-.41-.12-.37-.28-.44-.39-.25-.32-.09-.44-.14-.44-.02-.34-.02-.21-.02h-.21l-.25-.02-.28.05h-1.54l-.32-.02h-.37l-.41.02-.34-.07h-.71l-.55.07-.14.05-.07.16-.02.3-.02.6v.74l-.02.53.02.74-.02.69.07.41.34.21.3.07.3.02.41-.05.25.05.51.02h.48l.14.02.51-.02h.62l.97.09h.78Z"/><path class="cls-1" d="M287.75,237.26h-.39l-.35-.02-.46-.07h-.57l-.41-.11-.23-.05-.3-.07-.41-.16-.55-.21-.46-.25-.23-.11-.25-.16-.3-.16-.21-.16-.23-.14-.32-.3-.39-.35-.25-.25-.83-.99-.32-.62-.28-.51-.3-.53-.14-.51-.12-.3-.11-.55-.09-.46-.02-.28-.07-.39-.02-.32.02-.39v-.67l.07-.44.05-.41.18-.57.07-.37.18-.53.23-.6.21-.32.23-.51.44-.69.39-.53.23-.21.16-.21.23-.25.23-.23.18-.09.25-.25.62-.34.55-.28.64-.3.48-.14.3-.14.62-.21.58-.09.37-.07.55.02.8-.02.55.05h.25l.41.07.46.11.3.07.21.09.34.12.32.12.32.16.37.21.48.25.64.41.48.39.48.46.58.69.37.44.16.23.14.28.16.23.21.41.23.53.14.46.12.37.05.21.09.3.12.58.05.37v.32l.02.37-.05.39-.05.6-.05.37-.02.37-.07.46-.07.28-.09.39-.21.55-.18.51-.21.44-.16.28-.12.23-.18.23-.16.21-.14.21-.09.16-.14.16-.25.25-.3.23-.21.21-.16.14-.21.16-.18.16-.23.14-.16.14-.28.18-.46.25-.51.3-.39.16-.25.09-.48.16-.57.16-.48.07h-.67l-.53-.05ZM288.53,234.6l.3-.02.14-.02.12-.07.09-.05.3-.05.3-.14.28-.09.44-.23.46-.3.6-.44.34-.37.12-.14.18-.28.35-.44.46-.69.14-.51.09-.44.07-.51.05-.62.05-.32-.05-.6-.16-.83-.16-.53-.23-.48-.12-.39-.14-.25-.18-.37-.28-.35-.16-.21-.25-.25-.78-.62-.74-.44-.44-.18-.48-.14-.18-.05-.3-.09-.39-.09h-1.26l-.34.07-.41.05-.53.16-.76.32-1.29.74-.23.25-.18.23-.14.12-.28.39-.21.39-.12.16-.09.25-.16.3-.14.37-.12.37-.05.32-.11.51-.05.57.02.28.02.32.05.37v.35l.02.11.07.25.09.41.07.34.28.51.55.83.44.55.16.18.37.32.46.3.16.09.09.05.41.23.48.23.39.11.64.12.64.09.55.02.67-.07Z"/><path class="cls-1" d="M306.61,237.38l-.41-.05-.44-.11-.48-.09-.23-.07-.37-.12-.64-.18-.44-.18-.83-.46-.46-.37-.32-.21-.25-.23-.44-.37-.39-.41-.28-.39-.37-.46-.34-.53-.28-.62-.18-.51-.14-.28-.09-.3-.12-.46-.07-.37-.05-.25-.07-.39-.05-.44-.05-.21.02-.28-.05-.48.05-.37v-.18l.02-.39.09-.37.05-.34.09-.32.05-.25.09-.3.12-.21.07-.21.05-.16.18-.34.21-.37.14-.21.23-.44.37-.44.32-.46.53-.51.53-.44.23-.21.37-.23.46-.3.25-.14.28-.18.25-.14.25-.09.39-.11.58-.18.55-.18.48-.07.3-.07h.53l.46-.02.53.07.58.05.16.05.35.05.46.12.35.07.23.07.58.21.34.18.25.12.21.14.69.32.44.34.37.25.25.23.16.14.28.34.34.44.16.32.07.34-.14.46-.23.35-.32.25-.48.25-.51.02-.32-.12-.34-.3-.46-.44-.53-.44-.57-.37-.53-.3-.41-.16-.37-.12-1.29-.23-.44-.05-.11.02-.51.05-.78.14-.51.11-.34.16-.51.25-.48.3-.28.23-.21.21-.18.16-.64.74-.12.21-.16.23-.25.55-.18.46-.12.37-.16.51-.09.67v.78l.07.39.05.55.05.39.09.37.14.32.14.28.16.23.14.25.21.21.16.21.21.32.18.23.34.3.67.55.76.44.64.25.62.16.41.09.53.05.9-.07.46-.07.6-.16.44-.14.78-.37.48-.32.34-.32.44-.48.21-.3.23-.34.23-.41.23-.46.09-.37.05-.3-.02-.23-.3-.18h-.94l-.64.02-.23-.05h-.85l-.69.02-.28.02-.32.02-.21-.05h-.34l-.48-.05-.37-.14-.18-.28-.09-.37-.07-.62v-.46l.09-.25.18-.28.23-.14.23-.07h.94l.87-.07h.69l.3-.02h.51l1.63.02h.44l.92.05.8.07.23.07.25.14.34.37.23.71v.97l-.09.83-.09.44-.07.21-.05.32-.21.53-.16.51-.14.23-.14.32-.21.37-.14.23-.18.3-.28.34-.23.23-.37.44-.48.46-.23.18-.25.18-.23.12-.14.12-.44.28-.18.07-.46.23-.46.16-.34.07-.32.09-.18.07-.21.02-.34.09h-.39l-.21.07-.44.02h-.44l-.28.05-.51-.05Z"/><path class="cls-1" d="M330.94,237.12l-.23-.11-.18-.16-.25-.28-.28-.39-.18-.23-.18-.25-.18-.28-.21-.3-.14-.23-.18-.23-.25-.37-.37-.41-.25-.32-.21-.3-.3-.37-.34-.41-.28-.39-.37-.44-.23-.32-.14-.18-.16-.12-.23-.16-.23-.12-.25-.05-.3-.05-.21.02-1.43-.05-.55.05-.46.16-.11.37-.05.62-.05.53-.02.28-.02.6v.46l.02.64-.02.18v.44l-.02.39v.48l-.05.32-.05.37-.12.23-.12.14-.14.07-.23.07h-.28l-.41.05-.51-.05-.25-.05-.23-.09-.21-.37-.12-.32v-.55l-.02-.55-.02-.23.07-.9v-.55l-.02-.46-.05-.37v-1.56l.02-.44.02-.28-.02-.18v-1.06l.02-.44v-.9l-.02-.48v-.32l.05-.23-.05-.28v-.46l-.02-.16.02-.14.02-.23v-.41l-.02-.09.05-.35v-1.1l-.05-.23.05-.23-.07-.44v-.41l.02-.46.09-.39.14-.21.14-.12.25-.14.67-.09,1.01.05.8-.02.53-.02h.37l.25.02.39-.02.53-.02,1.17.02h.3l.44-.02h1.06l.53.02,1.24.11.28.07.41.14.53.23.58.34.32.32.18.21.34.37.21.39.12.37.16.39.12.32.09.18.05.21.05.18-.02.28.02.3.02.55.02.71-.02.34-.05.18-.07.25-.09.25-.16.46-.23.53-.14.21-.14.23-.25.28-.23.21-.23.25-.39.25-.28.14-.39.28-.48.21-.14.14.02.11.02.09.14.23.25.41.32.39.23.28.12.21.18.21.69.99.25.32.28.37.23.28.18.3.25.32.16.41-.05.16-.09.3-.28.46-.32.21-.39.28-.51.21-.23-.07ZM327.84,228.07l.21-.02.25-.02.18-.02.23.02.21-.09.16-.07.21-.07.14-.11.16-.16.14-.18.18-.48.09-.48.05-.21.02-.35.05-.28-.05-.34-.12-.41-.12-.37-.28-.44-.39-.25-.32-.09-.44-.14-.44-.02-.34-.02-.21-.02h-.21l-.25-.02-.28.05h-1.54l-.32-.02h-.37l-.41.02-.34-.07h-.71l-.55.07-.14.05-.07.16-.02.3-.02.6v.74l-.02.53.02.74-.02.69.07.41.34.21.3.07.3.02.41-.05.25.05.51.02h.48l.14.02.51-.02h.62l.97.09h.78Z"/><path class="cls-1" d="M337.18,237.22l-.3-.07-.41-.21-.32-.25-.23-.28-.09-.28v-.41l.21-.41.14-.34.12-.25.14-.28.21-.48.14-.37.44-.87.23-.51.21-.53.37-.71.23-.53.16-.32.16-.35.18-.39.32-.83.28-.48.18-.51.32-.69.37-.85.21-.46.34-.87.25-.53.12-.34.21-.39.16-.32.05-.18.09-.23.12-.32.16-.23.14-.28.14-.25.09-.18.16-.28.28-.23.58-.12h.62l.3.07.25.23.16.3.14.28.23.53.23.51.44.85.14.37.16.3.14.41.18.41.11.32.16.32.25.57.25.51.16.41.16.28.09.25.16.34.21.37.14.37.14.39.14.23.11.3.23.41.18.46.3.71.41.78.23.55.16.34.09.21.09.3.28.55.21.44.12.18.21.44.16.48.12.39-.09.51-.25.3-.46.23-.81.21-.53-.12-.21-.18-.23-.23-.07-.3-.21-.44-.25-.53-.14-.25-.21-.46-.25-.53-.09-.21-.16-.28-.21-.37-.16-.3-.23-.16-.46-.05-.57.02h-2.69l-.76-.02-.6.05-.32-.02-.39.05-.37.02-.3.16-.14.21-.46.92-.23.41-.07.25-.11.23-.14.32-.18.39-.12.34-.23.37-.28.41-.25.21-.37.09-.39-.02ZM345.34,230.23l.02-.02.07-.02.09-.21-.07-.41-.14-.34-.51-.9-.23-.44-.3-.74-.18-.44-.16-.41-.25-.6-.28-.23-.18.37-.18.58-.39.87-.3.62-.21.58-.18.41-.23.46-.02.18-.05.21v.23l.16.16.39.02h.41l.64.05,1.54.05.53-.02Z"/><path class="cls-1" d="M355.56,236.94l-.46-.23-.21-.44-.02-.51-.05-.25v-.46l.05-.41-.02-.46-.02-.51.02-.44-.05-.6v-.62l.02-.32-.05-.62.02-.78v-.37l-.05-.64v-.87l.02-.3.02-.64v-.9l-.02-.92v-1.38l.02-.3v-1.17l-.02-.53-.05-.46v-.39l.05-.18.16-.25.18-.14.44-.07.46-.05h.16l.34-.02.41.07.18.11.16.16.16.34.25.39.28.51.25.55.41.71.3.55.28.6.44.87.28.46.25.57.25.44.12.23.12.21.14.28.23.55.32.58.23.46.14.3.11.23.16.28.25.48.25.53.23.34.21.39.11.3.14.07.11-.07.16-.23.16-.25.16-.3.28-.58.25-.51.14-.3.18-.28.14-.16.07-.18.07-.21.23-.34.16-.34.14-.21.21-.39.23-.48.21-.44.21-.46.21-.41.23-.34.25-.55.3-.55.28-.62.34-.69.21-.44.07-.25.18-.32.09-.28.23-.46.35-.55.28-.18.28-.09,1.03-.09.41.05.37.14.14.21.05.16.05.37v2.32l-.02.48.02.53v2.07l.02.58v.32l-.02.48.07.69-.02.55.05.71v1.75l-.02.58v.37l-.02.3.02.51.02.46-.02.6.02.69-.05.51-.11.41-.14.16-.23.14-.18.07-.28.07-.39-.02h-.3l-.23-.05-.23-.07-.28-.14-.3-.64-.07-.71.02-.48v-.76l-.02-.97v-1.91l-.07-.76.05-.51v-.37l.02-.51v-.44l-.02-.25v-.6l-.02-.07-.07-.05-.05.05-.12.16-.07.21-.16.28-.11.23-.14.23-.16.32-.21.46-.23.51-.25.37-.23.39-.21.41-.16.35-.25.46-.34.64-.16.39-.16.44-.3.55-.12.28-.12.16-.09.21-.11.18-.09.18-.25.48-.21.44-.05.14-.21.3-.41.3-.3.05-.28.02-.32.02-.32-.02-.25-.12-.25-.34-.28-.58-.18-.34-.18-.41-.25-.55-.23-.41-.14-.32-.09-.21-.11-.23-.48-.8-.12-.16-.23-.51-.23-.48-.11-.23-.25-.39-.28-.64-.23-.46-.16-.37-.28-.46-.28-.6-.28-.51-.16-.18-.07.07v.34l-.02.53v.39l.02.18v.3l-.02.34.05.67v.46l-.02.87-.02.37v.99l.02.55-.02.39.05.41v.32l.05.51v.41l-.07.64-.07.25-.23.3-.76.21h-.51l-.39-.12Z"/><path class="cls-1" d="M249.01,21.07h-.03c-1.39-.41-2.63-1.25-3.94-2.13-1.16-.79-2.36-1.6-3.74-2.16-.71-.29-1.38-.42-2.06-.42-.37,0-.75.04-1.12.13-1.13.26-2.05.91-2.87,1.48-.14.1-.28.19-.42.29-1.66,1.12-3.2,1.69-4.57,1.69-.37,0-.73-.04-1.08-.13-1.48-.36-2.84-1.53-4.27-2.76-1.9-1.63-3.87-3.32-6.47-3.47-.12,0-.24-.01-.36-.01h0c-1.8,0-3.49.79-4.84,1.42-2.34,1.09-4.75,2.23-6.99,3.8l-.26.18c-.65.46-1.27.9-1.81.96-.04,0-.08,0-.12,0-.27,0-.6-.08-1.01-.25-.69-.28-1.38-.71-2.1-1.15-1.14-.7-2.31-1.43-3.71-1.74-.5-.11-1.03-.17-1.58-.17-1.59,0-3.12.47-4.55.96-2.7.92-4.99,3.57-7.2,6.15-1.77,2.06-3.6,4.19-5.34,4.96-2.5,1.11-5.21,2.51-7.89,4.03-2.82,1.6-4.61,4.86-4.61,8.44v14.5c0,.54.39.98.86.98,2.14.01,3.76.02,4.35.02,5.08,0,7.67-.57,10.16-1.11,2.55-.56,4.95-1.09,9.9-1.09s7.35.53,9.9,1.09c2.5.55,5.08,1.11,10.16,1.11s7.67-.57,10.16-1.11c2.55-.56,4.95-1.09,9.9-1.09s7.36.53,9.9,1.09c2.5.55,5.08,1.11,10.16,1.11.22,0,.58,0,1.03,0,.71,0,1.3-.67,1.3-1.47v-27.06c0-3.36-2.02-6.28-4.9-7.08ZM194.29,28.96c-1,.55-1.91,1.36-2.78,2.14-.73.66-1.49,1.34-2.31,1.88-.09.06-.19.12-.28.18-1.17.71-2.46,1.11-3.71,1.51-.83.26-1.68.53-2.48.88-1.45.64-2.82,1.58-4.14,2.48-1.35.93-2.75,1.89-4.26,2.55-.37.16-.81.32-1.25.32-.24,0-.47-.05-.7-.16-.66-.33-.8-.81-.81-1.16-.04-1.38,2.07-2.95,2.46-3.18,1.08-.64,2.16-1.25,3.25-1.87,1.64-.92,3.33-1.88,4.95-2.9,1.09-.67,1.98-1.71,2.84-2.72.38-.44.75-.89,1.15-1.3,1.48-1.56,3.06-3.03,4.69-4.38,2.96-2.44,4.6-1.64,7.09-.42.51.25,1.06.52,1.67.79.44.2.74.64.77,1.13.03.48-.19.9-.61,1.17-1.48.94-2.54,1.5-3.78,2.14-.53.28-1.11.58-1.76.93ZM229.2,28.41h0c-.47.07-.93.14-1.39.2-2.71.37-5.27.72-7.36,3.04-.21.24-.42.49-.63.74-.75.91-1.53,1.86-2.63,2.17-.47.14-.91.11-1.28-.06-.54-.26-.95-.88-1.1-1.66-.08-.4-.08-.81-.08-1.21,0-1.01-.04-1.59-.79-1.92-.56-.24-1.2-.15-1.7-.04-2.65.58-4.99,2.32-7.26,4.02l-.22.16c-.25.19-.52.39-.79.6-1.62,1.26-3.53,2.74-5.42,2.74-.68,0-1.37-.2-2.03-.67-.42-.3-.56-1.22.09-2.56.45-.91,1.16-1.61,1.85-2.28l.57-.57c3.17-3.24,5.32-5.32,6.4-6.18,1.49-1.19,3.22-1.88,4.89-2.55,1.27-.51,2.58-1.04,3.76-1.77.39-.23.78-.5,1.17-.77,1.16-.8,2.37-1.63,3.73-1.65.65,0,1.35.26,2.12.78,1.13.82,1.91,1.67,2.74,2.58,1.3,1.41,2.64,2.87,5.46,4.35.6.31,1.38.81,1.3,1.48-.1.79-1.38,1.03-1.39,1.03ZM245.68,27.46c-.4.2-.83.36-1.18.43-.92.19-1.73.28-2.45.28-1.77,0-2.98-.58-3.86-1.8-.33-.46-.9-.58-1.73-.37-.25.05-.5.17-.77.3-.32.16-.64.32-.97.36-.22.03-.45-.05-.62-.23-.18-.19-.27-.45-.26-.72.03-.56.17-1.04.42-1.42.26-.39.63-.72,1.14-1.05.8-.52,1.68-.84,2.58-1.14.72-.13,1.32.13,1.89.38.15.06.3.13.45.19.55.24,1.08.52,1.6.79,1.16.61,2.26,1.18,3.38,1.33h.06c.55.09.96.55,1.04,1.17.08.63-.21,1.23-.72,1.49Z"/><path class="cls-3" d="M253.44,93.51l-38.74-16.3-.07-.03c-3.01-1.04-6.26-1.04-9.26,0l-.07.03-38.74,16.3c-.75.31-.55,1.57.25,1.57h15.72c1.8,0,3.58-.35,5.27-1.04l18.4-7.47.05-.02c2.44-.82,5.07-.82,7.5,0l.05.02,18.4,7.47c1.69.69,3.47,1.04,5.27,1.04h15.72c.79,0,.99-1.25.25-1.57Z"/><path class="cls-2" d="M205.18,72.43l.12-.05c3.05-1.05,6.33-1.05,9.38,0l.13.05,38.11,16.04c.47.2.97-.2.97-.77v-25.76c0-.45-.33-.82-.73-.82-.73,0-1.29,0-1.6,0-5.08,0-7.67-.57-10.16-1.11-2.55-.56-4.95-1.09-9.9-1.09s-7.36.53-9.9,1.09c-2.5.55-5.08,1.11-10.16,1.11s-7.67-.57-10.16-1.11c-2.55-.56-4.95-1.09-9.9-1.09s-7.35.53-9.9,1.09c-2.5.55-5.08,1.11-10.16,1.11-.6,0-2.28,0-4.48-.02-.4,0-.73.36-.73.82,0,3.63,0,18.36,0,25.79,0,.57.5.96.97.76l38.11-16.04Z"/></svg>